PathFileType	3	(X/Y/Z)	D:\Jess\PFP\Labelled\PA24\20251014\SRRun01.trc
DataRate	CameraRate	NumFrames	NumMarkers	Units	OrigDataRate	OrigDataStartFrame	OrigNumFrames
250.0	250.0	4	33	mm	250.0	36875	2501
Frame#	Time	C7			T10			CLAV			LSHO			RSHO			LASIS			RASIS			LPSIS			RPSIS			LILCR			RILCR			LGTR			LTHI			LLTHI			LLEP			LPSH			LLSH			LDSH			LLMAL			LTOE			L5TH			LHEE			RGTR			RTHI			RLTHI			RLEP			RPSH			RLSH			RDSH			RLMAL			RTOE			R5TH			RHEE			
		X1	Y1	Z1	X2	Y2	Z2	X3	Y3	Z3	X4	Y4	Z4	X5	Y5	Z5	X6	Y6	Z6	X7	Y7	Z7	X8	Y8	Z8	X9	Y9	Z9	X10	Y10	Z10	X11	Y11	Z11	X12	Y12	Z12	X13	Y13	Z13	X14	Y14	Z14	X15	Y15	Z15	X16	Y16	Z16	X17	Y17	Z17	X18	Y18	Z18	X19	Y19	Z19	X20	Y20	Z20	X21	Y21	Z21	X22	Y22	Z22	X23	Y23	Z23	X24	Y24	Z24	X25	Y25	Z25	X26	Y26	Z26	X27	Y27	Z27	X28	Y28	Z28	X29	Y29	Z29	X30	Y30	Z30	X31	Y31	Z31	X32	Y32	Z32	X33	Y33	Z33	

1876	147.496	844.3531492758334	1473.486358188632	-992.2296708799861	856.3038418947779	1248.254958671648	-908.0801924238972	819.8754784515993	1373.467283749612	-1099.113521254371	665.3135089166395	1437.844549595917	-1017.899361947733	972.2885330924006	1440.04789277587	-1086.214035132785	721.8192826048225	1027.437902324908	-1014.239650243529	984.6113500281778	1017.008462777947	-1017.154182336235	809.02701066579	1061.329061850388	-847.786000552622	859.3535421059938	1061.805792752235	-847.8675490186679	693.2235178039874	1093.468401910179	-967.3294061240284	989.2268784590524	1095.079794209699	-987.2213444842625	669.822909275932	977.1171548704816	-975.2300050361929	759.4746326928785	862.9630220133	-1114.044428048697	699.65228632011	716.5553579922922	-1078.969620326987	724.8517804509319	564.7906576526963	-1147.387391447558	770.1561658440952	472.0441411213052	-1180.290474123893	712.003013057514	381.4794984760089	-1065.188236490528	758.9187292655899	265.4555437324344	-1080.236924477619	728.1619568190109	173.5207752861677	-995.2968357764745	719.5215495814407	84.44780987394378	-1113.83930181607	687.3000063663884	71.45716354873092	-1063.551798745219	783.184893088991	167.627809934268	-924.6018469545633	1026.996954533777	956.3740126878573	-939.1201281516214	946.9551984111328	759.7988074184477	-1003.15345690168	992.8950789758352	689.5418088751601	-879.0561117087206	956.2930988675714	516.8608218456479	-807.6616663462397	890.4889666276194	435.430161232718	-815.1940705701749	942.3524207925587	356.8433591310362	-703.5122251876952	878.4653106895666	242.3676596885271	-697.5936176763439	904.5705306606571	175.134647772252	-605.1947575046443	911.0439679715372	60.02025403169102	-701.3456437592004	938.6311754389137	58.63976255262587	-646.0162371686851	848.18242710508	173.6063275562851	-528.2777198031354	
1877	147.5	844.1304070408759	1475.353496758316	-993.0609355447806	857.2820548766264	1250.308082769632	-909.1000493346986	818.6118228597428	1375.710387347722	-1099.789004045331	665.1435446594633	1439.571873183595	-1017.13735911278	970.8447611456004	1442.252348695751	-1087.983172576219	722.2842309280012	1029.678969968452	-1014.865649541279	984.5467139951443	1018.014009381482	-1018.444147592769	809.2085246627296	1063.893579982558	-848.94431289078	859.5324136555274	1064.09287048585	-849.2601425608478	693.4307791506701	1095.945562365811	-967.8367777075166	988.9603605134089	1096.667842190006	-988.7188926012893	669.8338019917727	980.3577195980765	-976.1368209011461	759.9535527452812	866.0716316242822	-1114.548836074041	700.0176722036312	719.0344293109939	-1078.524486684394	725.1999334494623	565.7086977174063	-1146.152156230942	770.1823929857247	473.6646887810899	-1182.011508686902	712.489905983199	378.5726559331719	-1070.540136091141	759.7412299299325	263.374287036605	-1090.330001109752	729.4821555395935	167.9493041285815	-1009.270794388086	720.7537657864375	84.9086749164447	-1131.916732478241	688.7333568418826	69.31553104775094	-1082.29082280773	784.6114546983963	158.7567706625178	-938.9620095024272	1027.101146418334	957.8918948457127	-939.8745051653025	947.4914425804758	760.3546688226028	-1001.496150082855	993.3214836436695	692.087443695536	-876.0319089799201	956.9033326107767	520.5577246886619	-802.0101968693791	891.4996272733991	438.8698409473677	-809.386967208319	943.4512842022822	360.9370612138056	-697.2962252518316	880.364957989863	245.8498045299608	-691.6955502663667	906.2703320698705	178.7309630295034	-599.1963378207211	911.8433631092983	60.08819343513694	-692.2120500433329	939.096777578463	60.02315005106217	-636.7858622002909	849.5838216931597	179.6165955246493	-522.9777522764532	
1878	147.504	843.8917775147629	1477.084070518762	-993.8828019547466	858.1964371706833	1252.236793104805	-910.1244629524454	817.3798166928668	1377.837185950657	-1100.450193934955	664.9854518893688	1441.159821202316	-1016.471851314407	969.4180503437475	1444.339513654659	-1089.655445986854	722.7491376339203	1031.719106184915	-1015.516815526792	984.4680750420428	1018.94949003615	-1019.746710816521	809.3954622261465	1066.364946480764	-850.1379778081343	859.7048207218623	1066.295221515391	-850.6806995854769	693.6285536448094	1098.22270450238	-968.4144271844517	988.6906867063686	1098.166917254516	-990.2070158529654	669.8863875314207	983.4381780491756	-977.0261887200356	760.3681140482372	868.9205555375163	-1115.145216007044	700.3194864165731	721.3295244614789	-1077.968058846886	725.4790687271598	566.3283860313641	-1144.798758991029	770.180835748909	475.0884811228659	-1183.528373850613	712.9566650180237	375.6763308876832	-1075.834256372441	760.5489227653877	261.4845477107322	-1100.295073060732	730.7932061769437	162.7249350171761	-1023.265004489596	722.0764082426192	85.89723180891163	-1149.712292415285	690.2413174257475	67.7157698344334	-1100.907922490801	785.9899418516926	150.2718808215833	-953.4746524141768	1027.224099655928	959.3700180074472	-940.6548030366557	948.1582922280882	760.8809531465346	-999.909039712826	993.7590819152017	694.6090235868058	-873.1240069670293	957.4798209194274	524.2166237999038	-796.6430170179408	892.4716945079174	442.2455087489832	-803.8915556484795	944.527221309799	365.0033217952719	-691.3613437598481	882.2718011825671	249.289891835368	-686.0336244476629	908.0059930568643	182.3361255836965	-593.4053560152761	912.6565995001314	60.20596874938363	-683.105787725106	939.5542018029092	61.53923796614293	-627.6086043445819	851.0184168642409	185.6967316910832	-518.0096284392749	
1879	147.508	843.6381031369602	1478.667601378888	-994.6897673737056	859.0429441815518	1254.028795145278	-911.1479847130952	816.1800561346723	1379.838492785316	-1101.095152852093	664.8351246348064	1442.604755665772	-1015.896725587281	968.0142271689924	1446.299933588426	-1091.229645972694	723.2159663440239	1033.553496543459	-1016.186278034312	984.3765155026962	1019.813554189932	-1021.057002756627	809.5923955284675	1068.735909253171	-851.3615113148093	859.8765816376444	1068.406943016876	-852.1231052418211	693.8170435519597	1100.293370215279	-969.0576447406412	988.415065811176	1099.568034047024	-991.6978454735029	669.9808540916985	986.3438691861021	-977.8945885421422	760.7195120269793	871.4768352824562	-1115.824781560258	700.5438458663201	723.4185819367398	-1077.310031501828	725.688542696244	566.6622474726438	-1143.354896727964	770.1539230458338	476.3205888724202	-1184.855394331011	713.4057968702044	372.8138269256674	-1081.055208548469	761.3386422128726	259.797830141392	-1110.099341031302	732.0919725165836	157.8660591182098	-1037.224412054228	723.4836472266504	87.40178222253945	-1167.157536873528	691.8206285488433	66.65632521213638	-1119.331645338775	787.3197125163978	142.2015672870841	-968.0807252688491	1027.364501434993	960.8047034603338	-941.4590241134661	948.9429037783611	761.3794908000203	-998.3946279953003	994.1998314456631	697.0977809052029	-870.3428845717606	958.019479910006	527.8127694805866	-791.5785051757854	893.4061036816212	445.5261045762345	-798.7220495979705	945.5722719159671	369.0229373745249	-685.710877749873	884.17434851113	252.6715195936589	-680.5964680000804	909.7621949595557	185.9462641501334	-587.8014506181	913.4812743028028	60.38765265843605	-674.0070871712998	939.9982930050684	63.19875089229032	-618.4684003066516	852.4704189757997	191.8325198219973	-513.3620613184464	
